<?xml version="1.0" encoding="UTF-8" standalone="no"?>
<svg
   width="1900"
   height="512"
   viewBox="0 0 400.78088 93"
   version="1.1"
   id="svg1"
   xmlns="http://www.w3.org/2000/svg"
   xmlns:svg="http://www.w3.org/2000/svg">
  <style>
    path {
      fill: #000000;
    }
  </style>
  <path
     d="M 29.380919,92.40294 29.11354,92.48582 C 23.938271,94.01147 18.457911,91.146059 16.780184,85.982545 v 0 L 7.5096742,57.45085 7.3116385,56.819682 C 0.9992312,35.963238 16.701747,12.405675 42.70182,3.9577393 68.964521,-4.5755295 95.788711,5.5389899 102.61535,26.54915 v 0 l 9.27051,28.531696 c 1.70664,5.252539 -1.16786,10.894081 -6.4204,12.600735 v 0 z"
     id="Logo" />
  <path
     d="m 138.09922,85.605667 h 19.37252 v -22.2075 c 0,-9.45 -1.65377,-20.55375 -2.59875,-29.295 h 0.4725 l 7.32374,17.128125 17.00999,34.374375 h 20.79 V 8.8244171 h -19.3725 V 31.031917 c 0,9.45 1.65375,21.02625 2.59875,29.295 h -0.4725 L 175.89922,43.080667 158.88924,8.8244171 h -20.79 z m 79.08479,0 h 20.3175 V 8.8244171 h -20.3175 z m 70.3435,1.4175 c 9.9225,0 18.78188,-3.78 25.27875,-11.34 L 302.175,62.925667 c -3.3075,3.54375 -8.03251,6.615 -13.93876,6.615 -9.92251,0 -16.53751,-8.0325 -16.53751,-22.44375 0,-13.93875 7.79624,-22.2075 16.77375,-22.2075 5.1975,0 8.97751,2.3625 12.7575,5.67 l 10.63126,-12.99375 C 306.4275,12.131917 298.15874,7.4069171 288,7.4069171 c -19.37251,0 -37.09128,14.6474999 -37.09128,40.3987499 0,26.22375 17.01002,39.2175 36.61879,39.2175 z m 35.61473,-1.4175 h 20.3175 v -19.13625 l 7.32376,-10.395 17.00999,29.53125 h 22.2075 L 362.596,40.009417 385.51224,8.8244171 h -22.20749 l -19.3725,28.5862499 h -0.47251 V 8.8244171 h -20.3175 z"
     id="Text"
     aria-label="NICK" />
</svg>
